<svg xmlns="http://www.w3.org/2000/svg" width="1200" height="630" viewBox="0 0 1200 630">
  <defs>
    <linearGradient id="spectrum" x1="0" y1="1" x2="0" y2="0">
      <stop offset="0" stop-color="#07101a" />
      <stop offset="0.28" stop-color="#252066" />
      <stop offset="0.52" stop-color="#a52259" />
      <stop offset="0.74" stop-color="#e26632" />
      <stop offset="0.9" stop-color="#f4ca5a" />
      <stop offset="1" stop-color="#fff4cf" />
    </linearGradient>
    <clipPath id="plot">
      <rect x="66" y="334" width="1068" height="208" rx="4" />
    </clipPath>
  </defs>
  <rect width="1200" height="630" fill="#0d1010" />
  <rect x="36" y="36" width="1128" height="558" rx="18" fill="#131716" stroke="#34403d" stroke-width="2" />
  <g transform="translate(72 70)">
    <rect width="48" height="48" rx="9" fill="#19221f" stroke="#455550" />
    <g fill="#45cdb0">
      <rect x="9" y="19" width="4" height="10" rx="2" />
      <rect x="17" y="12" width="4" height="24" rx="2" />
      <rect x="25" y="7" width="4" height="34" rx="2" />
      <rect x="33" y="14" width="4" height="20" rx="2" />
      <rect x="41" y="20" width="3" height="8" rx="1.5" />
    </g>
    <text x="66" y="20" fill="#8fa09b" font-family="Avenir Next, Helvetica, sans-serif" font-size="17" font-weight="700" letter-spacing="2">LOCAL AUDIO ANALYSIS</text>
    <text x="66" y="72" fill="#eef4f2" font-family="Avenir Next, Helvetica, sans-serif" font-size="58" font-weight="650">Audio Visualizer</text>
    <text x="66" y="112" fill="#9ba9a5" font-family="Avenir Next, Helvetica, sans-serif" font-size="21">Waveform / Spectrogram / Stereo / Synchronized A/B</text>
  </g>
  <g clip-path="url(#plot)">
    <rect x="66" y="334" width="1068" height="208" fill="#080b12" />
    <g opacity="0.55" stroke="#80918c" stroke-width="1">
      <path d="M66 386H1134M66 438H1134M66 490H1134" />
      <path d="M200 334V542M334 334V542M468 334V542M602 334V542M736 334V542M870 334V542M1004 334V542" />
    </g>
    <g opacity="0.78">
      <rect x="78" y="449" width="9" height="93" fill="url(#spectrum)" />
      <rect x="91" y="405" width="13" height="137" fill="url(#spectrum)" />
      <rect x="108" y="472" width="7" height="70" fill="url(#spectrum)" />
      <rect x="120" y="372" width="18" height="170" fill="url(#spectrum)" />
      <rect x="143" y="426" width="10" height="116" fill="url(#spectrum)" />
      <rect x="158" y="344" width="24" height="198" fill="url(#spectrum)" />
      <rect x="188" y="394" width="11" height="148" fill="url(#spectrum)" />
      <rect x="205" y="463" width="8" height="79" fill="url(#spectrum)" />
      <rect x="219" y="359" width="17" height="183" fill="url(#spectrum)" />
      <rect x="242" y="421" width="12" height="121" fill="url(#spectrum)" />
      <rect x="260" y="382" width="20" height="160" fill="url(#spectrum)" />
      <rect x="286" y="451" width="8" height="91" fill="url(#spectrum)" />
      <rect x="300" y="349" width="22" height="193" fill="url(#spectrum)" />
      <rect x="329" y="416" width="14" height="126" fill="url(#spectrum)" />
      <rect x="349" y="371" width="17" height="171" fill="url(#spectrum)" />
      <rect x="372" y="441" width="10" height="101" fill="url(#spectrum)" />
      <rect x="388" y="339" width="27" height="203" fill="url(#spectrum)" />
      <rect x="421" y="399" width="13" height="143" fill="url(#spectrum)" />
      <rect x="440" y="461" width="8" height="81" fill="url(#spectrum)" />
      <rect x="454" y="365" width="21" height="177" fill="url(#spectrum)" />
      <rect x="481" y="427" width="11" height="115" fill="url(#spectrum)" />
      <rect x="499" y="353" width="24" height="189" fill="url(#spectrum)" />
      <rect x="530" y="409" width="16" height="133" fill="url(#spectrum)" />
      <rect x="552" y="379" width="19" height="163" fill="url(#spectrum)" />
      <rect x="578" y="449" width="9" height="93" fill="url(#spectrum)" />
      <rect x="593" y="342" width="29" height="200" fill="url(#spectrum)" />
      <rect x="629" y="392" width="13" height="150" fill="url(#spectrum)" />
      <rect x="648" y="469" width="8" height="73" fill="url(#spectrum)" />
      <rect x="662" y="360" width="22" height="182" fill="url(#spectrum)" />
      <rect x="691" y="418" width="13" height="124" fill="url(#spectrum)" />
      <rect x="711" y="346" width="27" height="196" fill="url(#spectrum)" />
      <rect x="745" y="402" width="14" height="140" fill="url(#spectrum)" />
      <rect x="766" y="375" width="18" height="167" fill="url(#spectrum)" />
      <rect x="791" y="454" width="9" height="88" fill="url(#spectrum)" />
      <rect x="807" y="355" width="23" height="187" fill="url(#spectrum)" />
      <rect x="837" y="425" width="11" height="117" fill="url(#spectrum)" />
      <rect x="854" y="383" width="20" height="159" fill="url(#spectrum)" />
      <rect x="881" y="467" width="7" height="75" fill="url(#spectrum)" />
      <rect x="894" y="347" width="27" height="195" fill="url(#spectrum)" />
      <rect x="928" y="405" width="15" height="137" fill="url(#spectrum)" />
      <rect x="950" y="368" width="21" height="174" fill="url(#spectrum)" />
      <rect x="978" y="438" width="11" height="104" fill="url(#spectrum)" />
      <rect x="995" y="343" width="29" height="199" fill="url(#spectrum)" />
      <rect x="1031" y="393" width="14" height="149" fill="url(#spectrum)" />
      <rect x="1052" y="460" width="8" height="82" fill="url(#spectrum)" />
      <rect x="1066" y="374" width="19" height="168" fill="url(#spectrum)" />
      <rect x="1092" y="423" width="13" height="119" fill="url(#spectrum)" />
      <rect x="1112" y="351" width="22" height="191" fill="url(#spectrum)" />
    </g>
    <path d="M66 433 C104 430 113 373 147 417 S203 477 239 422 S302 360 342 415 S401 476 443 418 S507 348 548 411 S606 474 649 419 S709 355 752 414 S809 472 851 420 S912 361 955 416 S1011 469 1053 421 S1108 375 1134 403" fill="none" stroke="#45cdb0" stroke-width="5" stroke-linecap="round" />
  </g>
  <rect x="66" y="334" width="1068" height="208" rx="4" fill="none" stroke="#3b4945" stroke-width="2" />
  <text x="72" y="576" fill="#74837f" font-family="SFMono-Regular, Consolas, monospace" font-size="14">PRIVATE BY DESIGN / AUDIO NEVER LEAVES YOUR BROWSER</text>
</svg>
